<svg width="44" height="49" viewBox="0 0 44 49" fill="none" xmlns="http://www.w3.org/2000/svg">
<path d="M43.2078 6.53562L41.0769 3.42788L39.2867 1.8765L39.2701 0.607881L38.4212 0L37.3559 2.26637L35.7459 1.22236L35.1886 1.78887L35.8148 3.0446L26.5703 11.8584L12.0115 18.9515L7.64398 19.9181L6.61645 20.4447L3.90377 23.9511L2.77723 27.7466L2.51266 29.8448L3.09686 31.0974L3.1586 30.6399L4.19912 26.8548L3.20616 34.4985L2.07983 37.9438L0 48.4316H1.88839L1.31748 47.4826L2.30933 42.4718L6.05453 34.9928L5.36572 37.8043L8.29193 48.4316H10.2819L9.44974 47.3724L8.05373 43.2084L7.46393 36.9549L9.6087 32.0147L10.8934 30.7613L16.845 30.77L17.8978 31.8196L15.9732 46.1469L16.05 48.4316H17.9439L17.2455 47.3825L17.506 41.9273L20.4114 31.9413L20.7681 31.9438L27.1446 48.4316H29.0591L28.0865 47.4382L26.353 42.7498L23.6351 30.9205L24.3556 24.8518L24.0028 23.1587L24.3345 21.9676L36.7052 7.92224L38.5897 7.55415L43.3487 9.28588L43.6867 7.94422L43.2078 6.53562Z" fill="#886239"/>
</svg>
